PathFileType	4	(x/y/z)	S04_BK_Cal.trc
DataRate	CameraRate	NumFrames	NumMarkers	Units	OrigDataRate	OrigDataStartFrame	OrigNumFrames
240	240	6	51	mm	240	1	2400
Frame#	Time	Sternum			R.Acromium			L.Acromium			Top.Head			R.ASIS			L.ASIS			R.PSIS			L.PSIS			R.Great.Tro			L.Great.Tro			R.Iliac.Crest			L.Iliac.Crest			V.Sacral			R.Thigh.Upper.Post			R.Thigh.Lower.Ant			R.Thigh.Lower.Post			R.Thigh.Upper.Ant			R.Knee.Lat			R.Knee.Med			R.Shank.Upper.Post			R.Shank.Lower.Ant			R.Shank.Lower.Post			R.Shank.Upper.Ant			R.Ankle.Lat			R.Ankle.Med			R.Heel.Upper			R.Heel.Med			R.Heel.Lat			R.Toe.Lat			R.Toe.Med			R.Toe.Tip			L.Thigh.Upper.Post			L.Thigh.Lower.Ant			L.Thigh.Lower.Post			L.Thigh.Upper.Ant			L.Knee.Lat			L.Knee.Med			L.Shank.Upper.Post			L.Shank.Lower.Ant			L.Shank.Lower.Post			L.Shank.Upper.Ant			L.Ankle.Lat			L.Ankle.Med			L.Heel.Upper			L.Heel.Med			L.Heel.Lat			L.Toe.Lat			L.Toe.Med			L.Toe.Tip			Cervical.Spine			Back			
		X1	Y1	Z1	X2	Y2	Z2	X3	Y3	Z3	X4	Y4	Z4	X5	Y5	Z5	X6	Y6	Z6	X7	Y7	Z7	X8	Y8	Z8	X9	Y9	Z9	X10	Y10	Z10	X11	Y11	Z11	X12	Y12	Z12	X13	Y13	Z13	X14	Y14	Z14	X15	Y15	Z15	X16	Y16	Z16	X17	Y17	Z17	X18	Y18	Z18	X19	Y19	Z19	X20	Y20	Z20	X21	Y21	Z21	X22	Y22	Z22	X23	Y23	Z23	X24	Y24	Z24	X25	Y25	Z25	X26	Y26	Z26	X27	Y27	Z27	X28	Y28	Z28	X29	Y29	Z29	X30	Y30	Z30	X31	Y31	Z31	X32	Y32	Z32	X33	Y33	Z33	X34	Y34	Z34	X35	Y35	Z35	X36	Y36	Z36	X37	Y37	Z37	X38	Y38	Z38	X39	Y39	Z39	X40	Y40	Z40	X41	Y41	Z41	X42	Y42	Z42	X43	Y43	Z43	X44	Y44	Z44	X45	Y45	Z45	X46	Y46	Z46	X47	Y47	Z47	X48	Y48	Z48	X49	Y49	Z49	X50	Y50	Z50	X51	Y51	Z51	

1	0	350.93	1221	295.44	230.24	1450.4	478.36	205.26	1442.4	132.22	225.2	1770.1	297.66	318.2	937.28	433.81	316.42	951.67	185.6	104.69	976.87	337.34	110.68	979.88	254.88	231.05	864.33	501.74	203.75	869.16	117.07	239.66	1030.9	476.54	220.98	1036.6	141.07	86.332	936.74	296.2	304.94	614.15	513.29	405.3	559.62	490.94	334.94	528.49	502.26	376.78	666.21	504.47	373.23	468.65	496.08	360.99	457.19	368.55	232.33	286.26	503.78	264.55	187.66	463.96	206.49	220.96	492.41	289.31	254.13	484.55	167.07	110.78	478.62	190.94	115.52	388.82	97.877	75.602	421.47	109.08	44.384	392.29	98.539	44.405	456.57	263.5	39.362	519	311.57	39.869	402.61	366.24	52.359	461.73	260.72	634.9	105.94	369.39	572.84	89.552	301.12	554.58	107.54	324.86	652.14	87.261	366.4	478.27	99.899	382.67	455.68	223.43	230.72	342.86	93.036	267.48	238.09	86.769	210.42	267.5	94.513	287.83	312.25	83.739	179.18	105.44	98.627	187.17	110.99	191.61	102.09	73.331	141.66	108.98	47.543	174.76	105.48	46.637	112.87	287.96	42.285	69.654	321.69	47.624	184.58	377.99	56.825	133.95	175.93	1494.2	310.56	93.395	1240.4	291.32
2	0.0041667	350.92	1221	295.44	230.23	1450.4	478.38	205.34	1442.3	132.26	225.24	1770.1	297.68	318.2	937.28	433.82	316.43	951.69	185.62	104.69	976.89	337.37	110.67	979.95	254.85	231.07	864.36	501.7	203.77	869.2	117.08	239.72	1030.8	476.49	220.87	1036.6	141.05	86.343	936.75	296.2	304.97	614.22	513.36	405.29	559.64	490.98	334.94	528.52	502.29	376.77	666.22	504.47	373.24	468.67	496.08	361.01	457.27	368.57	232.29	286.32	503.96	264.64	187.64	463.93	206.48	220.99	492.44	289.33	254.16	484.65	167.06	110.75	478.59	190.92	115.54	388.82	97.883	75.623	421.48	109.03	44.422	392.32	98.545	44.42	456.61	263.52	39.413	519.05	311.55	39.822	402.65	366.52	52.694	461.31	260.71	634.94	105.98	369.4	572.86	89.625	301.13	554.62	107.56	324.88	652.16	87.314	366.42	478.31	99.937	382.7	455.77	223.49	230.74	342.84	93.092	267.42	238.07	86.764	210.41	267.51	94.546	287.78	312.18	83.754	178.88	105.72	98.69	187.19	111.04	191.68	102.04	73.374	141.65	108.97	47.562	174.79	105.47	46.655	112.9	287.97	42.317	69.656	321.71	47.635	184.6	377.99	56.815	133.95	175.96	1494.3	310.59	93.394	1240.4	291.33
3	0.0083333	350.91	1221	295.45	230.22	1450.5	478.41	205.41	1442.3	132.29	225.27	1770.1	297.7	318.2	937.28	433.83	316.43	951.71	185.64	104.69	976.92	337.4	110.65	980.02	254.83	231.09	864.39	501.67	203.79	869.25	117.09	239.77	1030.8	476.45	220.77	1036.7	141.03	86.353	936.77	296.2	304.99	614.29	513.43	405.29	559.65	491.03	334.93	528.56	502.33	376.77	666.22	504.47	373.24	468.7	496.08	361.04	457.34	368.59	232.25	286.37	504.14	264.73	187.62	463.9	206.47	221.01	492.48	289.35	254.18	484.75	167.05	110.72	478.56	190.9	115.57	388.82	97.888	75.645	421.48	108.98	44.46	392.34	98.551	44.435	456.64	263.55	39.463	519.09	311.52	39.776	402.69	366.79	53.027	460.89	260.71	634.98	106.01	369.41	572.87	89.698	301.12	554.67	107.58	324.9	652.18	87.366	366.43	478.36	99.975	382.73	455.86	223.55	230.75	342.83	93.147	267.36	238.05	86.76	210.4	267.53	94.579	287.73	312.11	83.77	178.55	106.02	98.765	187.2	111.1	191.74	101.99	73.417	141.64	108.96	47.581	174.82	105.46	46.672	112.92	287.99	42.349	69.659	321.72	47.646	184.61	377.99	56.806	133.96	175.98	1494.3	310.61	93.393	1240.4	291.34
4	0.0125	350.9	1221	295.46	230.21	1450.5	478.44	205.48	1442.3	132.32	225.3	1770.1	297.72	318.2	937.28	433.84	316.43	951.73	185.67	104.68	976.95	337.42	110.64	980.09	254.8	231.11	864.42	501.64	203.81	869.29	117.1	239.83	1030.8	476.41	220.67	1036.7	141.02	86.362	936.79	296.2	305.01	614.36	513.5	405.28	559.67	491.08	334.93	528.6	502.37	376.76	666.23	504.47	373.25	468.72	496.08	361.06	457.41	368.61	232.2	286.43	504.32	264.81	187.61	463.87	206.46	221.03	492.52	289.37	254.2	484.84	167.03	110.69	478.53	190.89	115.59	388.82	97.893	75.666	421.49	108.93	44.497	392.37	98.557	44.45	456.67	263.57	39.512	519.13	311.5	39.731	402.72	367.06	53.357	460.47	260.7	635.02	106.05	369.41	572.89	89.769	301.12	554.72	107.6	324.92	652.19	87.416	366.44	478.41	100.01	382.76	455.94	223.61	230.76	342.81	93.2	267.3	238.03	86.756	210.4	267.54	94.61	287.68	312.04	83.785	178.18	106.32	98.856	187.22	111.15	191.81	101.94	73.458	141.64	108.95	47.599	174.85	105.46	46.689	112.95	288	42.38	69.662	321.73	47.656	184.62	377.99	56.797	133.96	176	1494.3	310.64	93.39	1240.4	291.34
5	0.016667	350.88	1221	295.47	230.2	1450.5	478.46	205.55	1442.2	132.35	225.33	1770.1	297.74	318.2	937.29	433.85	316.43	951.76	185.69	104.68	976.98	337.45	110.63	980.15	254.78	231.12	864.45	501.61	203.82	869.33	117.1	239.88	1030.7	476.37	220.57	1036.8	141	86.371	936.81	296.2	305.03	614.42	513.56	405.27	559.69	491.12	334.93	528.63	502.4	376.76	666.23	504.46	373.25	468.75	496.08	361.07	457.48	368.64	232.16	286.48	504.48	264.89	187.59	463.85	206.45	221.05	492.55	289.39	254.23	484.93	167.02	110.66	478.5	190.87	115.61	388.82	97.898	75.686	421.5	108.88	44.532	392.4	98.563	44.464	456.71	263.6	39.558	519.17	311.47	39.69	402.76	367.33	53.684	460.05	260.7	635.06	106.08	369.42	572.91	89.837	301.12	554.76	107.62	324.94	652.21	87.465	366.45	478.46	100.05	382.79	456.02	223.66	230.77	342.8	93.251	267.24	238.01	86.752	210.39	267.56	94.639	287.64	311.98	83.799	177.78	106.62	98.962	187.23	111.2	191.86	101.89	73.498	141.64	108.94	47.616	174.88	105.45	46.706	112.98	288.01	42.409	69.664	321.74	47.666	184.63	377.99	56.788	133.96	176.02	1494.4	310.66	93.388	1240.4	291.35
6	0.020833	350.87	1221	295.48	230.19	1450.6	478.49	205.61	1442.2	132.38	225.36	1770.1	297.76	318.2	937.3	433.86	316.43	951.78	185.71	104.67	977.01	337.48	110.62	980.22	254.76	231.13	864.48	501.59	203.83	869.37	117.11	239.92	1030.7	476.34	220.49	1036.8	140.98	86.378	936.84	296.2	305.05	614.48	513.62	405.25	559.7	491.16	334.92	528.66	502.43	376.75	666.24	504.46	373.25	468.77	496.08	361.08	457.55	368.66	232.12	286.53	504.63	264.96	187.58	463.82	206.45	221.06	492.58	289.4	254.25	485.01	167.01	110.63	478.48	190.85	115.63	388.83	97.902	75.706	421.5	108.83	44.565	392.42	98.568	44.477	456.74	263.62	39.601	519.21	311.45	39.652	402.79	367.59	54.006	459.65	260.69	635.1	106.11	369.42	572.92	89.901	301.11	554.8	107.64	324.95	652.23	87.511	366.46	478.5	100.08	382.81	456.09	223.72	230.78	342.79	93.298	267.19	238	86.749	210.38	267.57	94.667	287.59	311.92	83.814	177.36	106.91	99.082	187.24	111.25	191.91	101.85	73.534	141.63	108.93	47.633	174.9	105.44	46.721	113	288.02	42.437	69.667	321.75	47.676	184.64	377.99	56.781	133.97	176.04	1494.4	310.68	93.384	1240.4	291.36
